<svg width="285" height="116" viewBox="0 0 285 116" fill="none" xmlns="http://www.w3.org/2000/svg">
<path opacity="0.2" fill-rule="evenodd" clip-rule="evenodd" d="M146.437 42.118L265.593 5.54639C275.933 2.31559 277.037 -5.00393 268.061 -10.8149L163.245 -82.7369C152.552 -90.7463 142.385 -93.7305 126.728 -87.9307L7.74397 -51.5248C-2.59627 -48.294 -3.70031 -40.9745 5.27612 -35.1635L105.354 36.8807C116.107 45.2911 126.883 47.4161 146.437 42.118Z" fill="#0064EE" fill-opacity="0.23"/>
<path opacity="0.25" fill-rule="evenodd" clip-rule="evenodd" d="M61.5544 105.476L-63.3286 77.1445C-73.9992 74.6079 -76.0664 66.7523 -67.9494 59.585L26.2905 -28.5308C34.2859 -36.1602 49.2999 -40.2565 59.5647 -37.6092L184.448 -9.27787C195.118 -6.74123 197.186 1.11434 189.069 8.28162L94.8287 96.3974C85.5348 105.346 71.6977 107.661 61.5544 105.476Z" fill="#0064EE" fill-opacity="0.23"/>
<path opacity="0.3" fill-rule="evenodd" clip-rule="evenodd" d="M90.9533 24.0095L101.347 -103.242C102.135 -114.14 95.8851 -117.813 87.3778 -111.454L-15.6545 -38.6629C-24.5294 -32.5198 -32.3012 -18.8131 -32.8785 -8.28604L-43.2724 118.965C-44.0598 129.863 -37.8104 133.537 -29.3031 127.178L73.7293 54.3863C84.1149 47.2625 90.0083 34.3205 90.9533 24.0095Z" fill="#0064EE" fill-opacity="0.23"/>
</svg>
