<svg width="16" height="16" viewBox="0 0 16 16" fill="none" xmlns="http://www.w3.org/2000/svg">
<g clip-path="url(#clip0_532_8330)">
<path fill-rule="evenodd" clip-rule="evenodd" d="M3.8194 9.61664C3.90137 9.7911 3.82698 9.99917 3.65325 10.0815L0.893167 11.3888L0.886607 11.3916C0.790753 11.4323 0.73694 11.4714 0.71006 11.4975C0.73758 11.5272 0.794207 11.5721 0.89646 11.62L7.20667 14.4942C7.4062 14.5824 7.6988 14.635 8.0088 14.635C8.32047 14.635 8.6048 14.5818 8.7892 14.4961L8.7916 14.495L15.1133 11.6155C15.2092 11.5748 15.2631 11.5359 15.2899 11.5098C15.2623 11.4799 15.2053 11.4348 15.1021 11.3866L15.0961 11.3838L12.436 10.0794C12.2634 9.99484 12.1918 9.7857 12.2761 9.61244C12.3604 9.4391 12.5687 9.36724 12.7413 9.4519L15.3986 10.7548C15.6977 10.8952 16 11.1424 16 11.5122C16 11.8879 15.6903 12.128 15.3887 12.257L9.08147 15.1299C9.081 15.1301 9.0806 15.1303 9.0802 15.1305C8.77367 15.2726 8.38053 15.3334 8.0088 15.3334C7.63547 15.3334 7.23893 15.2721 6.92407 15.1324L6.92093 15.131L0.604533 12.2539C0.304457 12.1138 0 11.8661 0 11.495C0 11.1204 0.308014 10.8806 0.608826 10.7513L3.35641 9.44984C3.53015 9.36757 3.73743 9.44224 3.8194 9.61664ZM15.3077 11.5332C15.3077 11.5332 15.3075 11.5329 15.3073 11.5324L15.3077 11.5332Z" fill="black" stroke="black" stroke-width="0.1"/>
<path fill-rule="evenodd" clip-rule="evenodd" d="M3.86883 6.11037C3.94709 6.2865 3.8683 6.49297 3.69286 6.57153L0.885887 7.82853C0.78958 7.86953 0.73592 7.90887 0.709447 7.93493C0.736547 7.96467 0.792993 8.00993 0.895747 8.05827L7.19687 10.9405C7.39173 11.0359 7.6792 11.0937 7.99127 11.0937C8.30247 11.0937 8.59873 11.0363 8.80867 10.9379L8.8116 10.9366L15.1141 8.05373C15.2104 8.01273 15.2641 7.97347 15.2905 7.94733C15.2633 7.91747 15.2065 7.872 15.1029 7.8234L15.1022 7.82313L12.4409 6.56872C12.2669 6.48676 12.1921 6.27879 12.2738 6.10421C12.3554 5.92963 12.5626 5.85455 12.7365 5.93651L15.3972 7.1906C15.3973 7.19067 15.3971 7.19053 15.3972 7.1906C15.6969 7.3312 16 7.57947 16 7.94973C16 8.3248 15.6918 8.56533 15.3903 8.69487L9.10293 11.5708C9.1024 11.571 9.10193 11.5713 9.1014 11.5715C8.7754 11.7239 8.37293 11.7921 7.99127 11.7921C7.6116 11.7921 7.21327 11.7247 6.89607 11.5703L0.602795 8.69173C0.302923 8.55113 0 8.30307 0 7.9326C0 7.55693 0.309092 7.31627 0.610977 7.18687L3.40949 5.93369C3.58493 5.85513 3.79058 5.93423 3.86883 6.11037ZM15.3076 7.97013C15.3076 7.97013 15.3074 7.9698 15.3072 7.96927L15.3076 7.97013ZM0.692407 7.9122C0.692427 7.9122 0.692573 7.91247 0.6928 7.91307L0.692407 7.9122Z" fill="black" stroke="black" stroke-width="0.1"/>
<path fill-rule="evenodd" clip-rule="evenodd" d="M8.00873 1.36504C7.69693 1.36504 7.4 1.42164 7.1896 1.51885L7.18667 1.52021L0.884247 4.36152C0.793773 4.39952 0.740947 4.43591 0.713033 4.46133C0.741673 4.49031 0.79728 4.53235 0.894013 4.5772L7.18507 7.41336C7.38387 7.50036 7.67573 7.55236 7.99127 7.55236C8.30473 7.55236 8.60407 7.50096 8.81767 7.41216L15.1157 4.5728C15.2062 4.53479 15.2591 4.49841 15.2869 4.47299C15.2583 4.44401 15.2027 4.40197 15.106 4.35713C15.1055 4.35691 15.1051 4.3567 15.1046 4.35649L8.80493 1.51642C8.60953 1.42203 8.3214 1.36504 8.00873 1.36504ZM15.3084 4.49945C15.3083 4.49945 15.3082 4.49921 15.308 4.49871L15.3084 4.49945ZM0.691627 4.43487C0.69164 4.43487 0.691773 4.43511 0.691987 4.43561L0.691627 4.43487ZM9.1022 0.884839C8.78547 0.732993 8.38787 0.666626 8.00873 0.666626C7.6276 0.666626 7.22587 0.733679 6.90033 0.883686L0.611326 3.71896C0.312161 3.84565 0 4.08313 0 4.45871C0 4.8296 0.306818 5.07472 0.604547 5.21228L6.90173 8.05123L6.9048 8.05263C7.2188 8.19049 7.614 8.25083 7.99127 8.25083C8.3694 8.25083 8.76767 8.19023 9.09007 8.05483L15.3887 5.21535C15.6879 5.08867 16 4.85118 16 4.4756C16 4.10471 15.6932 3.85959 15.3955 3.72203L9.1022 0.884839Z" fill="black" stroke="black" stroke-width="0.1"/>
</g>
<defs>
<clipPath id="clip0_532_8330">
<rect width="16" height="16" fill="white"/>
</clipPath>
</defs>
</svg>
